<?xml version="1.0" ?><svg enable-background="new 0 0 512 512" id="Layer_1" version="1.1" viewBox="0 0 512 512" xml:space="preserve" xmlns="http://www.w3.org/2000/svg" xmlns:xlink="http://www.w3.org/1999/xlink"><g><g><linearGradient gradientUnits="userSpaceOnUse" id="SVGID_1_" x1="-0.0000027" x2="512" y1="256" y2="256"><stop offset="0" style="stop-color:#FFCA05"/><stop offset="1" style="stop-color:#FAAC18"/></linearGradient><circle cx="256" cy="256" fill="url(#SVGID_1_)" r="256"/><linearGradient gradientUnits="userSpaceOnUse" id="SVGID_2_" x1="42.6666641" x2="469.3333435" y1="256.0005188" y2="256.0005188"><stop offset="0" style="stop-color:#FAAC18"/><stop offset="1" style="stop-color:#FFCA05"/></linearGradient><path d="M256,469.3338623c-117.6315155,0-213.3333435-95.7018738-213.3333435-213.3333435    S138.3684845,42.6671982,256,42.6671982c117.6356812,0,213.3333435,95.7018661,213.3333435,213.333313    S373.6356812,469.3338623,256,469.3338623z" fill="url(#SVGID_2_)"/></g><g><path d="M264.0015564,191.4645386c-24.375473,0-44.2048035,19.8287964-44.2048035,44.2037354    c0,24.3754578,19.8293304,44.2042542,44.2048035,44.2042542c24.374939,0,44.2037354-19.8287964,44.2037354-44.2042542    C308.2052917,211.293335,288.3764954,191.4645386,264.0015564,191.4645386z M294.7680054,240.6682739h-61.5339203v-10h61.5339203    V240.6682739z" opacity="0.3"/><path d="M264,144c-50.3477783,0-91.162674,40.8138733-91.162674,91.1621399C172.837326,325.0837402,264,384,264,384    s91.1626587-58.9162598,91.1626587-148.8378601C355.1626587,184.8138733,314.347168,144,264,144z M264.0015564,289.8725281    c-29.8880005,0-54.2048035-24.3162537-54.2048035-54.2042542c0-29.8874817,24.316803-54.2037354,54.2048035-54.2037354    c29.8874512,0,54.2037354,24.3162537,54.2037354,54.2037354    C318.2052917,265.5562744,293.8890076,289.8725281,264.0015564,289.8725281z" opacity="0.3"/></g><g><path d="M256.0015564,183.4645386c-24.375473,0-44.2048035,19.8287964-44.2048035,44.2037354    c0,24.3754578,19.8293304,44.2042542,44.2048035,44.2042542c24.374939,0,44.2037354-19.8287964,44.2037354-44.2042542    C300.2052917,203.293335,280.3764954,183.4645386,256.0015564,183.4645386z M286.7680054,232.6682739h-61.5339203v-10h61.5339203    V232.6682739z" fill="#FFFFFF"/><path d="M256,136c-50.3477783,0-91.162674,40.8138733-91.162674,91.1621399    C164.837326,317.0837402,256,376,256,376s91.1626587-58.9162598,91.1626587-148.8378601    C347.1626587,176.8138733,306.347168,136,256,136z M256.0015564,281.8725281    c-29.8880005,0-54.2048035-24.3162537-54.2048035-54.2042542c0-29.8874817,24.316803-54.2037354,54.2048035-54.2037354    c29.8874512,0,54.2037354,24.3162537,54.2037354,54.2037354    C310.2052917,257.5562744,285.8890076,281.8725281,256.0015564,281.8725281z" fill="#FFFFFF"/></g></g></svg>